brrip of aliens special edition. please seed and enjoy.



General
Complete name                            : C:Aliens (1986) brripAliens (1986) brrip.mp4
Format                                   : MPEG-4
Format profile                           : Base Media
Codec ID                                 : isom
File size                                : 1.95 GiB
Duration                                 : 2h 34mn
Overall bit rate mode                    : Variable
Overall bit rate                         : 1 808 Kbps
Encoded date                             : UTC 2012-08-30 22:02:26
Tagged date                              : UTC 2012-08-30 22:02:26

Video
ID                                       : 1
Format                                   : AVC
Format/Info                              : Advanced Video Codec
Format profile                           : High 10@L4.0
Format settings, CABAC                   : Yes
Format settings, ReFrames                : 3 frames
Codec ID                                 : avc1
Codec ID/Info                            : Advanced Video Coding
Duration                                 : 2h 34mn
Bit rate                                 : 1 678 Kbps
Maximum bit rate                         : 22.8 Mbps
Width                                    : 1 920 pixels
Height                                   : 1 038 pixels
Display aspect ratio                     : 1.850
Frame rate mode                          : Constant
Frame rate                               : 23.976 fps
Color space                              : YUV
Chroma subsampling                       : 4:2:0
Bit depth                                : 10 bits
Scan type                                : Progressive
Bits/(Pixel*Frame)                       : 0.035
Stream size                              : 1.81 GiB (93%)
Writing library                          : x264 core 124 r2197 69a0443
Audio
ID                                       : 2
Format                                   : AAC
Format/Info                              : Advanced Audio Codec
Format profile                           : LC
Codec ID                                 : 40
Duration                                 : 2h 34mn
Bit rate mode                            : Variable
Bit rate                                 : 128 Kbps
Maximum bit rate                         : 134 Kbps
Channel(s)                               : 2 channels
Channel positions                        : Front: L R
Sampling rate                            : 48.0 KHz
Compression mode                         : Lossy
Stream size                              : 141 MiB (7%)
Language                                 : English
Encoded date                             : UTC 2012-08-30 22:03:47
Tagged date                              : UTC 2012-08-30 22:04:07

Menu
